<svg width="40" height="40" viewBox="0 0 40 40" fill="none" xmlns="http://www.w3.org/2000/svg">
<g clip-path="url(#clip0_1713_975)">
<mask id="mask0_1713_975" style="mask-type:luminance" maskUnits="userSpaceOnUse" x="0" y="0" width="40" height="40">
<path d="M40 0H0V40H40V0Z" fill="white"/>
</mask>
<g mask="url(#mask0_1713_975)">
<path d="M35 11.6673V28.334C35 33.334 32.5 36.6673 26.6667 36.6673H13.3333C7.5 36.6673 5 33.334 5 28.334V11.6673C5 6.66732 7.5 3.33398 13.3333 3.33398H26.6667C32.5 3.33398 35 6.66732 35 11.6673Z" stroke="white" stroke-width="2" stroke-miterlimit="10" stroke-linecap="round" stroke-linejoin="round"/>
<path d="M24.167 7.5V10.8333C24.167 12.6667 25.667 14.1667 27.5003 14.1667H30.8337" stroke="white" stroke-width="2" stroke-miterlimit="10" stroke-linecap="round" stroke-linejoin="round"/>
<path d="M13.333 21.668H19.9997" stroke="white" stroke-width="2" stroke-miterlimit="10" stroke-linecap="round" stroke-linejoin="round"/>
<path d="M13.333 28.334H26.6663" stroke="white" stroke-width="2" stroke-miterlimit="10" stroke-linecap="round" stroke-linejoin="round"/>
</g>
</g>
<defs>
<clipPath id="clip0_1713_975">
<rect width="40" height="40" fill="white"/>
</clipPath>
</defs>
</svg>
